<mxfile host="app.diagrams.net" modified="2024-04-22T10:09:27.612Z" agent="Mozilla/5.0 (Windows NT 10.0; Win64; x64) AppleWebKit/537.36 (KHTML, like Gecko) Chrome/124.0.0.0 Safari/537.36 Edg/124.0.0.0" etag="PRKbGiHHygLJbdiIl_BV" version="24.2.7" type="device">
  <diagram id="C5RBs43oDa-KdzZeNtuy" name="Page-1">
    <mxGraphModel dx="786" dy="433" grid="1" gridSize="10" guides="1" tooltips="1" connect="1" arrows="1" fold="1" page="1" pageScale="1" pageWidth="827" pageHeight="1169" math="0" shadow="0">
      <root>
        <mxCell id="WIyWlLk6GJQsqaUBKTNV-0" />
        <mxCell id="WIyWlLk6GJQsqaUBKTNV-1" parent="WIyWlLk6GJQsqaUBKTNV-0" />
        <mxCell id="M3RZ-X0ErNZ3ZlBa89DX-2" style="edgeStyle=orthogonalEdgeStyle;rounded=0;orthogonalLoop=1;jettySize=auto;html=1;exitX=0.5;exitY=1;exitDx=0;exitDy=0;" edge="1" parent="WIyWlLk6GJQsqaUBKTNV-1" source="M3RZ-X0ErNZ3ZlBa89DX-0" target="M3RZ-X0ErNZ3ZlBa89DX-1">
          <mxGeometry relative="1" as="geometry" />
        </mxCell>
        <mxCell id="M3RZ-X0ErNZ3ZlBa89DX-0" value="start" style="ellipse;whiteSpace=wrap;html=1;" vertex="1" parent="WIyWlLk6GJQsqaUBKTNV-1">
          <mxGeometry x="300" y="10" width="120" height="60" as="geometry" />
        </mxCell>
        <mxCell id="M3RZ-X0ErNZ3ZlBa89DX-1" value="ввод количества&lt;div&gt;элементов в массиве arr&lt;/div&gt;" style="shape=parallelogram;perimeter=parallelogramPerimeter;whiteSpace=wrap;html=1;fixedSize=1;" vertex="1" parent="WIyWlLk6GJQsqaUBKTNV-1">
          <mxGeometry x="270" y="90" width="180" height="50" as="geometry" />
        </mxCell>
        <mxCell id="M3RZ-X0ErNZ3ZlBa89DX-16" style="edgeStyle=orthogonalEdgeStyle;rounded=0;orthogonalLoop=1;jettySize=auto;html=1;exitX=0.5;exitY=1;exitDx=0;exitDy=0;" edge="1" parent="WIyWlLk6GJQsqaUBKTNV-1" source="M3RZ-X0ErNZ3ZlBa89DX-3">
          <mxGeometry relative="1" as="geometry">
            <mxPoint x="354" y="460" as="targetPoint" />
          </mxGeometry>
        </mxCell>
        <mxCell id="M3RZ-X0ErNZ3ZlBa89DX-3" value="ввод элементов массива arr" style="shape=parallelogram;perimeter=parallelogramPerimeter;whiteSpace=wrap;html=1;fixedSize=1;" vertex="1" parent="WIyWlLk6GJQsqaUBKTNV-1">
          <mxGeometry x="294" y="370" width="120" height="60" as="geometry" />
        </mxCell>
        <mxCell id="M3RZ-X0ErNZ3ZlBa89DX-6" style="edgeStyle=orthogonalEdgeStyle;rounded=0;orthogonalLoop=1;jettySize=auto;html=1;exitX=0.5;exitY=1;exitDx=0;exitDy=0;entryX=0.561;entryY=-0.033;entryDx=0;entryDy=0;entryPerimeter=0;" edge="1" parent="WIyWlLk6GJQsqaUBKTNV-1" source="M3RZ-X0ErNZ3ZlBa89DX-4" target="M3RZ-X0ErNZ3ZlBa89DX-3">
          <mxGeometry relative="1" as="geometry" />
        </mxCell>
        <mxCell id="M3RZ-X0ErNZ3ZlBa89DX-4" value="определение переменной длины массива arr" style="rounded=1;whiteSpace=wrap;html=1;" vertex="1" parent="WIyWlLk6GJQsqaUBKTNV-1">
          <mxGeometry x="300" y="280" width="120" height="60" as="geometry" />
        </mxCell>
        <mxCell id="M3RZ-X0ErNZ3ZlBa89DX-8" style="edgeStyle=orthogonalEdgeStyle;rounded=0;orthogonalLoop=1;jettySize=auto;html=1;exitX=1;exitY=0.5;exitDx=0;exitDy=0;entryX=0.5;entryY=0;entryDx=0;entryDy=0;" edge="1" parent="WIyWlLk6GJQsqaUBKTNV-1" source="M3RZ-X0ErNZ3ZlBa89DX-7" target="M3RZ-X0ErNZ3ZlBa89DX-4">
          <mxGeometry relative="1" as="geometry" />
        </mxCell>
        <mxCell id="M3RZ-X0ErNZ3ZlBa89DX-7" value="введено число, и оно больше 0?" style="rhombus;whiteSpace=wrap;html=1;" vertex="1" parent="WIyWlLk6GJQsqaUBKTNV-1">
          <mxGeometry x="250" y="160" width="220" height="80" as="geometry" />
        </mxCell>
        <mxCell id="M3RZ-X0ErNZ3ZlBa89DX-9" style="edgeStyle=orthogonalEdgeStyle;rounded=0;orthogonalLoop=1;jettySize=auto;html=1;exitX=0;exitY=0.5;exitDx=0;exitDy=0;entryX=0.041;entryY=0.36;entryDx=0;entryDy=0;entryPerimeter=0;" edge="1" parent="WIyWlLk6GJQsqaUBKTNV-1" source="M3RZ-X0ErNZ3ZlBa89DX-7" target="M3RZ-X0ErNZ3ZlBa89DX-1">
          <mxGeometry relative="1" as="geometry">
            <Array as="points">
              <mxPoint x="230" y="200" />
              <mxPoint x="230" y="108" />
            </Array>
          </mxGeometry>
        </mxCell>
        <mxCell id="M3RZ-X0ErNZ3ZlBa89DX-10" value="Да" style="text;html=1;align=center;verticalAlign=middle;resizable=0;points=[];autosize=1;strokeColor=none;fillColor=none;" vertex="1" parent="WIyWlLk6GJQsqaUBKTNV-1">
          <mxGeometry x="460" y="168" width="40" height="30" as="geometry" />
        </mxCell>
        <mxCell id="M3RZ-X0ErNZ3ZlBa89DX-11" value="Нет" style="text;html=1;align=center;verticalAlign=middle;resizable=0;points=[];autosize=1;strokeColor=none;fillColor=none;" vertex="1" parent="WIyWlLk6GJQsqaUBKTNV-1">
          <mxGeometry x="230" y="168" width="40" height="30" as="geometry" />
        </mxCell>
        <mxCell id="M3RZ-X0ErNZ3ZlBa89DX-19" style="edgeStyle=orthogonalEdgeStyle;rounded=0;orthogonalLoop=1;jettySize=auto;html=1;exitX=0.5;exitY=1;exitDx=0;exitDy=0;" edge="1" parent="WIyWlLk6GJQsqaUBKTNV-1" source="M3RZ-X0ErNZ3ZlBa89DX-12">
          <mxGeometry relative="1" as="geometry">
            <mxPoint x="360" y="580" as="targetPoint" />
          </mxGeometry>
        </mxCell>
        <mxCell id="M3RZ-X0ErNZ3ZlBa89DX-24" style="edgeStyle=orthogonalEdgeStyle;rounded=0;orthogonalLoop=1;jettySize=auto;html=1;exitX=1;exitY=0.5;exitDx=0;exitDy=0;entryX=0.5;entryY=0;entryDx=0;entryDy=0;" edge="1" parent="WIyWlLk6GJQsqaUBKTNV-1" source="M3RZ-X0ErNZ3ZlBa89DX-12" target="M3RZ-X0ErNZ3ZlBa89DX-23">
          <mxGeometry relative="1" as="geometry">
            <Array as="points">
              <mxPoint x="440" y="500" />
              <mxPoint x="440" y="660" />
              <mxPoint x="360" y="660" />
            </Array>
          </mxGeometry>
        </mxCell>
        <mxCell id="M3RZ-X0ErNZ3ZlBa89DX-12" value="кол-во = длина массива arr" style="shape=hexagon;perimeter=hexagonPerimeter2;whiteSpace=wrap;html=1;fixedSize=1;" vertex="1" parent="WIyWlLk6GJQsqaUBKTNV-1">
          <mxGeometry x="300" y="460" width="120" height="80" as="geometry" />
        </mxCell>
        <mxCell id="M3RZ-X0ErNZ3ZlBa89DX-18" style="edgeStyle=orthogonalEdgeStyle;rounded=0;orthogonalLoop=1;jettySize=auto;html=1;exitX=0;exitY=0.5;exitDx=0;exitDy=0;entryX=0;entryY=0.5;entryDx=0;entryDy=0;" edge="1" parent="WIyWlLk6GJQsqaUBKTNV-1" source="M3RZ-X0ErNZ3ZlBa89DX-13" target="M3RZ-X0ErNZ3ZlBa89DX-12">
          <mxGeometry relative="1" as="geometry" />
        </mxCell>
        <mxCell id="M3RZ-X0ErNZ3ZlBa89DX-13" value="определение количества элементов, меньше 4" style="rounded=1;whiteSpace=wrap;html=1;" vertex="1" parent="WIyWlLk6GJQsqaUBKTNV-1">
          <mxGeometry x="300" y="585" width="120" height="60" as="geometry" />
        </mxCell>
        <mxCell id="M3RZ-X0ErNZ3ZlBa89DX-17" value="меньше" style="text;html=1;align=center;verticalAlign=middle;resizable=0;points=[];autosize=1;strokeColor=none;fillColor=none;" vertex="1" parent="WIyWlLk6GJQsqaUBKTNV-1">
          <mxGeometry x="360" y="540" width="70" height="30" as="geometry" />
        </mxCell>
        <mxCell id="M3RZ-X0ErNZ3ZlBa89DX-27" style="edgeStyle=orthogonalEdgeStyle;rounded=0;orthogonalLoop=1;jettySize=auto;html=1;exitX=0.5;exitY=1;exitDx=0;exitDy=0;entryX=0.5;entryY=0;entryDx=0;entryDy=0;" edge="1" parent="WIyWlLk6GJQsqaUBKTNV-1" source="M3RZ-X0ErNZ3ZlBa89DX-20" target="M3RZ-X0ErNZ3ZlBa89DX-26">
          <mxGeometry relative="1" as="geometry" />
        </mxCell>
        <mxCell id="M3RZ-X0ErNZ3ZlBa89DX-31" style="edgeStyle=orthogonalEdgeStyle;rounded=0;orthogonalLoop=1;jettySize=auto;html=1;exitX=1;exitY=0.5;exitDx=0;exitDy=0;entryX=0.5;entryY=0;entryDx=0;entryDy=0;" edge="1" parent="WIyWlLk6GJQsqaUBKTNV-1" source="M3RZ-X0ErNZ3ZlBa89DX-20" target="M3RZ-X0ErNZ3ZlBa89DX-30">
          <mxGeometry relative="1" as="geometry">
            <Array as="points">
              <mxPoint x="440" y="840" />
              <mxPoint x="440" y="1000" />
              <mxPoint x="360" y="1000" />
            </Array>
          </mxGeometry>
        </mxCell>
        <mxCell id="M3RZ-X0ErNZ3ZlBa89DX-20" value="кол-во = длина массива arr" style="shape=hexagon;perimeter=hexagonPerimeter2;whiteSpace=wrap;html=1;fixedSize=1;" vertex="1" parent="WIyWlLk6GJQsqaUBKTNV-1">
          <mxGeometry x="300" y="800" width="120" height="80" as="geometry" />
        </mxCell>
        <mxCell id="M3RZ-X0ErNZ3ZlBa89DX-22" value="больше" style="text;html=1;align=center;verticalAlign=middle;resizable=0;points=[];autosize=1;strokeColor=none;fillColor=none;" vertex="1" parent="WIyWlLk6GJQsqaUBKTNV-1">
          <mxGeometry x="405" y="468" width="70" height="30" as="geometry" />
        </mxCell>
        <mxCell id="M3RZ-X0ErNZ3ZlBa89DX-25" style="edgeStyle=orthogonalEdgeStyle;rounded=0;orthogonalLoop=1;jettySize=auto;html=1;exitX=0.5;exitY=1;exitDx=0;exitDy=0;entryX=0.5;entryY=0;entryDx=0;entryDy=0;" edge="1" parent="WIyWlLk6GJQsqaUBKTNV-1" source="M3RZ-X0ErNZ3ZlBa89DX-23" target="M3RZ-X0ErNZ3ZlBa89DX-20">
          <mxGeometry relative="1" as="geometry" />
        </mxCell>
        <mxCell id="M3RZ-X0ErNZ3ZlBa89DX-23" value="создание нового массива out_arr, с длиной, равной количеству эл-тов массива arr, меньше 4" style="rounded=1;whiteSpace=wrap;html=1;" vertex="1" parent="WIyWlLk6GJQsqaUBKTNV-1">
          <mxGeometry x="285" y="700" width="150" height="80" as="geometry" />
        </mxCell>
        <mxCell id="M3RZ-X0ErNZ3ZlBa89DX-28" style="edgeStyle=orthogonalEdgeStyle;rounded=0;orthogonalLoop=1;jettySize=auto;html=1;entryX=0;entryY=0.5;entryDx=0;entryDy=0;" edge="1" parent="WIyWlLk6GJQsqaUBKTNV-1" source="M3RZ-X0ErNZ3ZlBa89DX-26" target="M3RZ-X0ErNZ3ZlBa89DX-20">
          <mxGeometry relative="1" as="geometry">
            <Array as="points">
              <mxPoint x="280" y="960" />
              <mxPoint x="280" y="840" />
            </Array>
          </mxGeometry>
        </mxCell>
        <mxCell id="M3RZ-X0ErNZ3ZlBa89DX-26" value="добавление элементов &amp;lt;4 из массива arr в массив out_arr" style="rounded=1;whiteSpace=wrap;html=1;" vertex="1" parent="WIyWlLk6GJQsqaUBKTNV-1">
          <mxGeometry x="300" y="920" width="120" height="60" as="geometry" />
        </mxCell>
        <mxCell id="M3RZ-X0ErNZ3ZlBa89DX-29" value="меньше" style="text;html=1;align=center;verticalAlign=middle;resizable=0;points=[];autosize=1;strokeColor=none;fillColor=none;" vertex="1" parent="WIyWlLk6GJQsqaUBKTNV-1">
          <mxGeometry x="360" y="880" width="70" height="30" as="geometry" />
        </mxCell>
        <mxCell id="M3RZ-X0ErNZ3ZlBa89DX-34" value="" style="edgeStyle=orthogonalEdgeStyle;rounded=0;orthogonalLoop=1;jettySize=auto;html=1;" edge="1" parent="WIyWlLk6GJQsqaUBKTNV-1" source="M3RZ-X0ErNZ3ZlBa89DX-30" target="M3RZ-X0ErNZ3ZlBa89DX-33">
          <mxGeometry relative="1" as="geometry" />
        </mxCell>
        <mxCell id="M3RZ-X0ErNZ3ZlBa89DX-30" value="вывод массива out_arr" style="shape=parallelogram;perimeter=parallelogramPerimeter;whiteSpace=wrap;html=1;fixedSize=1;" vertex="1" parent="WIyWlLk6GJQsqaUBKTNV-1">
          <mxGeometry x="300" y="1020" width="120" height="60" as="geometry" />
        </mxCell>
        <mxCell id="M3RZ-X0ErNZ3ZlBa89DX-32" value="больше" style="text;html=1;align=center;verticalAlign=middle;resizable=0;points=[];autosize=1;strokeColor=none;fillColor=none;" vertex="1" parent="WIyWlLk6GJQsqaUBKTNV-1">
          <mxGeometry x="414" y="808" width="70" height="30" as="geometry" />
        </mxCell>
        <mxCell id="M3RZ-X0ErNZ3ZlBa89DX-33" value="finish" style="ellipse;whiteSpace=wrap;html=1;" vertex="1" parent="WIyWlLk6GJQsqaUBKTNV-1">
          <mxGeometry x="300" y="1110" width="120" height="80" as="geometry" />
        </mxCell>
      </root>
    </mxGraphModel>
  </diagram>
</mxfile>
